<svg id="screens" xmlns="http://www.w3.org/2000/svg" viewBox="0 0 44.75 34.49" style="background: #f8f9fa;"><title>screens</title><g id="back"><rect x="9.89" y="1.89" width="34.86" height="24.73" rx="1.24" ry="1.24" style="fill:#212f4a"/><rect x="9.76" y="1.76" width="34.86" height="24.73" rx="1.24" ry="1.24" style="fill:#100d44"/><rect x="10.34" y="4.7" width="33.69" height="21.13" rx="0.72" ry="0.72" style="fill:#fcfcfc"/><path d="M37.18,6.77A1.23,1.23,0,0,0,36,6H30.83A1.25,1.25,0,0,0,29.6,7.27v.49h8Z" transform="translate(-2.39 -6)" style="fill:#9ac070"/><path d="M21.42,7.27A1.25,1.25,0,0,0,20.19,6H15a1.23,1.23,0,0,0-1.13.77l-.4,1h8Z" transform="translate(-2.39 -6)" style="fill:#e8a34d"/><path d="M29.58,7.76V7.28A1.29,1.29,0,0,0,28.29,6H22.72a1.29,1.29,0,0,0-1.29,1.28v.48Z" transform="translate(-2.39 -6)" style="fill:#eadc93"/><rect x="11.17" y="5.47" width="1.79" height="0.43" rx="0.21" ry="0.21" style="fill:#c7c7c7"/><rect x="13.37" y="5.47" width="1.79" height="0.43" rx="0.21" ry="0.21" style="fill:#c7c7c7"/><rect x="18.55" y="13.72" width="17.2" height="3.28" rx="0.85" ry="0.85" style="fill:#212f4a;opacity:0.5"/><rect x="18.55" y="13.59" width="17.2" height="3.28" rx="0.85" ry="0.85" style="fill:#fff;stroke:#272425;stroke-miterlimit:10;stroke-width:0.093781955059958px"/><line x1="34.12" y1="15.32" x2="34.81" y2="16.06" style="fill:#fff;stroke:#272425;stroke-linecap:round;stroke-linejoin:round;stroke-width:0.187563910119917px"/><ellipse cx="33.87" cy="15.11" rx="0.69" ry="0.71" style="fill:#fff;stroke:#272425;stroke-miterlimit:10;stroke-width:0.093781955059958px"/><line x1="19.18" y1="14.4" x2="19.18" y2="16.06" style="fill:#fff;stroke:#272425;stroke-linecap:round;stroke-linejoin:round;stroke-width:0.093781955059958px"/><path d="M29.07,18.15h-4a.82.82,0,0,1-.8-.83h0a.82.82,0,0,1,.8-.83h4a.82.82,0,0,1,.8.83h0A.82.82,0,0,1,29.07,18.15Z" transform="translate(-2.39 -6)" style="fill:#212f4a;opacity:0.5"/><path d="M34,18.15H31.74a.82.82,0,0,1-.8-.83h0a.82.82,0,0,1,.8-.83H34a.82.82,0,0,1,.8.83h0A.82.82,0,0,1,34,18.15Z" transform="translate(-2.39 -6)" style="fill:#212f4a;opacity:0.5"/><path d="M29.07,18h-4a.82.82,0,0,1-.8-.83h0a.82.82,0,0,1,.8-.83h4a.82.82,0,0,1,.8.83h0A.82.82,0,0,1,29.07,18Z" transform="translate(-2.39 -6)" style="fill:#375cd1"/><path d="M34,18H31.74a.82.82,0,0,1-.8-.83h0a.82.82,0,0,1,.8-.83H34a.82.82,0,0,1,.8.83h0A.82.82,0,0,1,34,18Z" transform="translate(-2.39 -6)" style="fill:#375cd1"/><path d="M33.79,24.39H25.2a.2.2,0,0,1-.19-.2h0a.2.2,0,0,1,.19-.2h8.59a.2.2,0,0,1,.19.2h0A.2.2,0,0,1,33.79,24.39Z" transform="translate(-2.39 -6)" style="fill:#212f4a;opacity:0.5"/><path d="M33.79,24.32H25.2a.2.2,0,0,1-.19-.2h0a.2.2,0,0,1,.19-.2h8.59a.2.2,0,0,1,.19.2h0A.2.2,0,0,1,33.79,24.32Z" transform="translate(-2.39 -6)" style="fill:#375cd1"/></g><path id="shadow" d="M43.57,32.62V15a1.44,1.44,0,0,0-1.42-1.47h-30v19.1Z" transform="translate(-2.39 -6)" style="fill:#212f4a;opacity:0.2"/><g id="front"><rect x="0.16" y="9.11" width="40.07" height="25.38" rx="1.39" ry="1.39" style="fill:#212f4a"/><rect y="8.94" width="40.07" height="25.38" rx="1.39" ry="1.39" style="fill:#dff6ff"/><path d="M42.46,16.35a1.39,1.39,0,0,0-1.36-1.41H3.75a1.39,1.39,0,0,0-1.36,1.41V17H42.46Z" transform="translate(-2.39 -6)" style="fill:#130a66"/><ellipse cx="3.41" cy="10.12" rx="0.41" ry="0.42" style="fill:#e8a34d"/><ellipse cx="4.82" cy="10.12" rx="0.41" ry="0.42" style="fill:#eadc93"/><ellipse cx="6.23" cy="10.12" rx="0.41" ry="0.42" style="fill:#9ac070"/><path d="M38.86,20.16H5.54a.83.83,0,0,1-.82-.85h0a.83.83,0,0,1,.82-.85H38.86a.83.83,0,0,1,.82.85h0A.83.83,0,0,1,38.86,20.16Z" transform="translate(-2.39 -6)" style="fill:#212f4a;opacity:0.5"/><path d="M38.86,20H5.54a.83.83,0,0,1-.82-.85h0a.83.83,0,0,1,.82-.85H38.86a.83.83,0,0,1,.82.85h0A.83.83,0,0,1,38.86,20Z" transform="translate(-2.39 -6)" style="fill:#fff"/><rect x="3.41" y="13.19" width="8.73" height="0.25" style="fill:#c7c7c7"/><rect x="2.74" y="15.89" width="24.91" height="9.71" rx="1.07" ry="1.07" style="fill:#212f4a;opacity:0.5"/><rect x="2.74" y="25.96" width="24.91" height="2.83" rx="0.81" ry="0.81" style="fill:#212f4a;opacity:0.5"/><rect x="2.74" y="29.32" width="24.91" height="2.83" rx="0.81" ry="0.81" style="fill:#212f4a;opacity:0.5"/><rect x="2.74" y="15.77" width="24.91" height="9.71" rx="1.07" ry="1.07" style="fill:#fff"/><rect x="2.74" y="25.84" width="24.91" height="2.83" rx="0.81" ry="0.81" style="fill:#fff"/><rect x="2.74" y="29.2" width="24.91" height="2.83" rx="0.81" ry="0.81" style="fill:#fff"/><ellipse cx="15.19" cy="30.66" rx="0.89" ry="0.92" style="fill:#1363df"/><rect x="3.7" y="26.56" width="6.78" height="0.31" style="fill:#c7c7c7"/><path d="M28.43,33.93H24a.6.6,0,0,1-.59-.61h0a.6.6,0,0,1,.59-.61h4.4a.6.6,0,0,1,.59.61h0A.6.6,0,0,1,28.43,33.93Z" transform="translate(-2.39 -6)" style="fill:#1363df"/><rect x="3.7" y="27.46" width="16.34" height="0.24" style="fill:#c7c7c7"/><path d="M21,25.31H13.45a.3.3,0,0,1-.29-.3h0a.3.3,0,0,1,.29-.3H21a.3.3,0,0,1,.29.3h0A.3.3,0,0,1,21,25.31Z" transform="translate(-2.39 -6)" style="fill:#47b5ff"/><path d="M21,26.62H13.45a.3.3,0,0,1-.29-.3h0a.3.3,0,0,1,.29-.3H21a.3.3,0,0,1,.29.3h0A.3.3,0,0,1,21,26.62Z" transform="translate(-2.39 -6)" style="fill:#47b5ff"/><path d="M21,27.94H13.45a.3.3,0,0,1-.29-.3h0a.3.3,0,0,1,.29-.3H21a.3.3,0,0,1,.29.3h0A.3.3,0,0,1,21,27.94Z" transform="translate(-2.39 -6)" style="fill:#47b5ff"/><rect x="20.29" y="18.83" width="6.08" height="3.6" rx="0.85" ry="0.85" style="fill:#212f4a;opacity:0.5"/><ellipse cx="6.72" cy="20.6" rx="2.83" ry="2.92" style="fill:#212f4a;opacity:0.5"/><rect x="20.29" y="18.71" width="6.08" height="3.6" rx="0.85" ry="0.85" style="fill:#1363df"/><ellipse cx="6.72" cy="20.48" rx="2.83" ry="2.92" style="fill:#1363df"/><rect x="29.14" y="15.89" width="8.13" height="16.26" rx="1.17" ry="1.17" style="fill:#212f4a;opacity:0.5"/><rect x="29.14" y="15.77" width="8.13" height="16.26" rx="1.17" ry="1.17" style="fill:#47b5ff"/><path d="M37.32,25.15H33.88a.22.22,0,0,1-.21-.22h0a.22.22,0,0,1,.21-.22h3.44a.22.22,0,0,1,.21.22h0A.22.22,0,0,1,37.32,25.15Z" transform="translate(-2.39 -6)" style="fill:#1363df"/><path d="M37.32,26H33.88a.22.22,0,0,1-.21-.22h0a.22.22,0,0,1,.21-.22h3.44a.22.22,0,0,1,.21.22h0A.22.22,0,0,1,37.32,26Z" transform="translate(-2.39 -6)" style="fill:#1363df"/><rect x="30.56" y="21.75" width="5.3" height="0.39" style="fill:#fff"/><rect x="30.56" y="22.71" width="5.3" height="0.39" style="fill:#fff"/><rect x="30.56" y="23.67" width="5.3" height="0.39" style="fill:#fff"/><rect x="30.56" y="24.64" width="5.3" height="0.39" style="fill:#fff"/><rect x="30.56" y="25.6" width="5.3" height="0.39" style="fill:#fff"/><path d="M38,35.49h-4.9a.82.82,0,0,1-.81-.83h0a.82.82,0,0,1,.81-.83H38a.82.82,0,0,1,.81.83h0A.82.82,0,0,1,38,35.49Z" transform="translate(-2.39 -6)" style="fill:#212f4a;opacity:0.5"/><path d="M38,35.37h-4.9a.82.82,0,0,1-.81-.83h0a.82.82,0,0,1,.81-.83H38a.82.82,0,0,1,.81.83h0A.82.82,0,0,1,38,35.37Z" transform="translate(-2.39 -6)" style="fill:#1363df"/><path d="M10.84,25.92h-.69a.07.07,0,0,0-.07.07V26a.07.07,0,0,1-.07.07H9.69A.07.07,0,0,1,9.63,26V26a.07.07,0,0,0-.07-.07h-.9a.07.07,0,0,0-.07.07V26a.07.07,0,0,1-.07.07H8.21A.07.07,0,0,1,8.14,26V26a.07.07,0,0,0-.07-.07H7.39a.17.17,0,0,0-.17.16.16.16,0,0,0,.16.17h3.46a.16.16,0,0,0,.16-.17A.17.17,0,0,0,10.84,25.92Z" transform="translate(-2.39 -6)" style="fill:#fff"/><path d="M8,28.29a.12.12,0,0,0,.12.12h2.05a.12.12,0,0,0,.12-.12H8Z" transform="translate(-2.39 -6)" style="fill:#fff"/><path d="M7.67,27.93a.29.29,0,0,0,.28.25h2.31a.29.29,0,0,0,.28-.25l.23-1.56H7.44Zm2-1.17a.15.15,0,1,1,.3,0v1a.15.15,0,1,1-.3,0Zm-.74,0a.15.15,0,0,1,.15-.15h0a.15.15,0,0,1,.15.15v1a.15.15,0,0,1-.15.15h0A.15.15,0,0,1,9,27.74Zm-.74,0a.15.15,0,1,1,.3,0v1a.15.15,0,1,1-.3,0Z" transform="translate(-2.39 -6)" style="fill:#fff"/><path d="M8.28,26h.17A.07.07,0,0,0,8.52,26v-.25a.6.6,0,0,1,.59-.61h0a.6.6,0,0,1,.59.61V26a.07.07,0,0,0,.07.07h.17A.07.07,0,0,0,10,26v-.25a.91.91,0,0,0-.89-.92h0a.91.91,0,0,0-.89.92V26A.07.07,0,0,0,8.28,26Z" transform="translate(-2.39 -6)" style="fill:#fff"/></g></svg>